<svg xmlns="http://www.w3.org/2000/svg" viewBox="0 118 1600 1106" width="1600" height="1106" font-family="Inter, 'Helvetica Neue', Arial, sans-serif" xmlns:c2pa="http://c2pa.org/manifest"><metadata><c2pa:manifest>AAAWgmp1bWIAAAAeanVtZGMycGEAEQAQgAAAqgA4m3EDYzJwYQAAABZcanVtYgAAAEdqdW1kYzJtYQARABCAAACqADibcQN1cm46YzJwYTozMzc4NWJmOC04OTAyLTRhZjgtYWI5YS1iN2VkYjgwMjkzOTMAAAADl2p1bWIAAAApanVtZGMyYXMAEQAQgAAAqgA4m3EDYzJwYS5hc3NlcnRpb25zAAAAALxqdW1iAAAARGp1bWRjYm9yABEAEIAAAKoAOJtxE2MycGEuaW5ncmVkaWVudC52MwAAAAAYYzJzaO/Gtc7fWFI5i2S+mnQf3M0AAABwY2JvcqNpZGM6Zm9ybWF0bWltYWdlL3N2Zyt4bWxqaW5zdGFuY2VJRHgseG1wOmlpZDo5NzQ2MjM1MC1kMWM0LTRjNGYtOTZjNS04MzIyMzkyZmZkNDJscmVsYXRpb25zaGlwaHBhcmVudE9mAAAB4mp1bWIAAABBanVtZGNib3IAEQAQgAAAqgA4m3ETYzJwYS5hY3Rpb25zLnYyAAAAABhjMnNoK8LUh1hYu6aZYXBc1/YqTwAAAZljYm9yomdhY3Rpb25zgqJmYWN0aW9ua2MycGEub3BlbmVkanBhcmFtZXRlcnOha2luZ3JlZGllbnRzgaJjdXJseC1zZWxmI2p1bWJmPWMycGEuYXNzZXJ0aW9ucy9jMnBhLmluZ3JlZGllbnQudjNkaGFzaFggpjJTGmmOUNaIak/jR9DQbrCD8lNioAelPUBcCxRVu4SkZmFjdGlvbngdY29tLmFudGhyb3BpYy5jbGF1ZGUucHJvdmlkZWRqcGFyYW1ldGVyc6F4H2NvbS5hbnRocm9waWMub3JpZ2luLWNvbmZpZGVuY2VndW5rbm93bmtkZXNjcmlwdGlvbnhmQ2xhdWRlIHByb3ZpZGVkIHRoaXMgZmlsZSBhdCB0aGUgcmVxdWVzdCBvZiBhIHVzZXIgYW5kIG1heSBoYXZlIGNyZWF0ZWQgb3IgbW9kaWZpZWQgdGhlIGZpbGUgY29udGVudHMubXNvZnR3YXJlQWdlbnShZG5hbWVmQ2xhdWRlcmFsbEFjdGlvbnNJbmNsdWRlZPUAAADIanVtYgAAAEBqdW1kY2JvcgARABCAAACqADibcRNjMnBhLmhhc2guZGF0YQAAAAAYYzJzaNXjpiqNIALMXLnGsauQhwAAAACAY2JvcqVjYWxnZnNoYTI1NmNwYWRNAAAAAAAAAAAAAAAAAGRoYXNoWCBtEGl95oJ0KK4FQS1gRJ35dypNzUUnzOBh6QOwAgDH5mRuYW1lbmp1bWJmIG1hbmlmZXN0amV4Y2x1c2lvbnOBomVzdGFydBjTZmxlbmd0aBkeBAAAAj5qdW1iAAAAJ2p1bWRjMmNsABEAEIAAAKoAOJtxA2MycGEuY2xhaW0udjIAAAACD2Nib3KlY2FsZ2ZzaGEyNTZpc2lnbmF0dXJleE1zZWxmI2p1bWJmPS9jMnBhL3VybjpjMnBhOjMzNzg1YmY4LTg5MDItNGFmOC1hYjlhLWI3ZWRiODAyOTM5My9jMnBhLnNpZ25hdHVyZWppbnN0YW5jZUlEeCx4bXA6aWlkOjUxNGZiZTEzLWEyMmUtNDBkZS05NjM4LTEwNDlmYjk0ZDRjNnJjcmVhdGVkX2Fzc2VydGlvbnODomN1cmx4LXNlbGYjanVtYmY9YzJwYS5hc3NlcnRpb25zL2MycGEuaW5ncmVkaWVudC52M2RoYXNoWCCmMlMaaY5Q1ohqT+NH0NBusIPyU2KgB6U9QFwLFFW7hKJjdXJseCpzZWxmI2p1bWJmPWMycGEuYXNzZXJ0aW9ucy9jMnBhLmFjdGlvbnMudjJkaGFzaFggwXaDx70Hg1VXmfKv/MnhhS7yToiTH0AiJoq3yc3f9p6iY3VybHgpc2VsZiNqdW1iZj1jMnBhLmFzc2VydGlvbnMvYzJwYS5oYXNoLmRhdGFkaGFzaFgg16NWU+XccFzoXEslie5hpEHPvwGnXsAexTH+E0lT9cx0Y2xhaW1fZ2VuZXJhdG9yX2luZm+jZG5hbWVvQW50aHJvcGljIEZpbGVzZ3ZlcnNpb25lMS4wLjBrc3BlY1ZlcnNpb25lMi40LjAAABA4anVtYgAAAChqdW1kYzJjcwARABCAAACqADibcQNjMnBhLnNpZ25hdHVyZQAAABAIY2JvctKEWQISogEmGCFZAgowggIGMIIBjaADAgECAhRA5aAK7sI50L64g/oGQgU9Z1UTADAKBggqhkjOPQQDAzBJMRcwFQYDVQQKEw5BbnRocm9waWMsIFBCQzEuMCwGA1UEAxMlQW50aHJvcGljIENvbnRlbnQgQ3JlZGVudGlhbHMgUm9vdCBDQTAeFw0yNjA4MDcxODQzNTZaFw0yODA4MDYxOTQzNTZaMEQxFzAVBgNVBAoTDkFudGhyb3BpYywgUEJDMSkwJwYDVQQDEyBBbnRocm9waWMgQ2xhdWRlIENvbnRlbnQgU2lnbmluZzBZMBMGByqGSM49AgEGCCqGSM49AwEHA0IABJh6CmvLUBgFFNU0vUKlOVtE6djd17L5SuwX0LemFisBM3dkd/3cyjxFA3Qo5S46fX0/ihY0VZ7mfb9KF703t5OjWDBWMA4GA1UdDwEB/wQEAwIHgDAVBgNVHSUEDjAMBgorBgEEAYPoXgIBMAwGA1UdEwEB/wQCMAAwHwYDVR0jBBgwFoAUzlHiBIFOZFsj+OPEz5o+nMHXXMIwCgYIKoZIzj0EAwMDZwAwZAIwMXMdFJ4BetLLVY7ORuE9noqbbAZOZn/aArXyTwFAZfKrPzxF2vPoJNf1+UCdg1XGAjBwX1zd9WGqYkqmL5SFqw1QySjr1zJfpJM9+1rdDwSPLMOPOjKuiXjoU/pUUeG9RwmhY3BhZFkNngAAAAAAAAAAAAAAAAAAAAAAAAAAAAAAAAAAAAAAAAAAAAAAAAAAAAAAAAAAAAAAAAAAAAAAAAAAAAAAAAAAAAAAAAAAAAAAAAAAAAAAAAAAAAAAAAAAAAAAAAAAAAAAAAAAAAAAAAAAAAAAAAAAAAAAAAAAAAAAAAAAAAAAAAAAAAAAAAAAAAAAAAAAAAAAAAAAAAAAAAAAAAAAAAAAAAAAAAAAAAAAAAAAAAAAAAAAAAAAAAAAAAAAAAAAAAAAAAAAAAAAAAAAAAAAAAAAAAAAAAAAAAAAAAAAAAAAAAAAAAAAAAAAAAAAAAAAAAAAAAAAAAAAAAAAAAAAAAAAAAAAAAAAAAAAAAAAAAAAAAAAAAAAAAAAAAAAAAAAAAAAAAAAAAAAAAAAAAAAAAAAAAAAAAAAAAAAAAAAAAAAAAAAAAAAAAAAAAAAAAAAAAAAAAAAAAAAAAAAAAAAAAAAAAAAAAAAAAAAAAAAAAAAAAAAAAAAAAAAAAAAAAAAAAAAAAAAAAAAAAAAAAAAAAAAAAAAAAAAAAAAAAAAAAAAAAAAAAAAAAAAAAAAAAAAAAAAAAAAAAAAAAAAAAAAAAAAAAAAAAAAAAAAAAAAAAAAAAAAAAAAAAAAAAAAAAAAAAAAAAAAAAAAAAAAAAAAAAAAAAAAAAAAAAAAAAAAAAAAAAAAAAAAAAAAAAAAAAAAAAAAAAAAAAAAAAAAAAAAAAAAAAAAAAAAAAAAAAAAAAAAAAAAAAAAAAAAAAAAAAAAAAAAAAAAAAAAAAAAAAAAAAAAAAAAAAAAAAAAAAAAAAAAAAAAAAAAAAAAAAAAAAAAAAAAAAAAAAAAAAAAAAAAAAAAAAAAAAAAAAAAAAAAAAAAAAAAAAAAAAAAAAAAAAAAAAAAAAAAAAAAAAAAAAAAAAAAAAAAAAAAAAAAAAAAAAAAAAAAAAAAAAAAAAAAAAAAAAAAAAAAAAAAAAAAAAAAAAAAAAAAAAAAAAAAAAAAAAAAAAAAAAAAAAAAAAAAAAAAAAAAAAAAAAAAAAAAAAAAAAAAAAAAAAAAAAAAAAAAAAAAAAAAAAAAAAAAAAAAAAAAAAAAAAAAAAAAAAAAAAAAAAAAAAAAAAAAAAAAAAAAAAAAAAAAAAAAAAAAAAAAAAAAAAAAAAAAAAAAAAAAAAAAAAAAAAAAAAAAAAAAAAAAAAAAAAAAAAAAAAAAAAAAAAAAAAAAAAAAAAAAAAAAAAAAAAAAAAAAAAAAAAAAAAAAAAAAAAAAAAAAAAAAAAAAAAAAAAAAAAAAAAAAAAAAAAAAAAAAAAAAAAAAAAAAAAAAAAAAAAAAAAAAAAAAAAAAAAAAAAAAAAAAAAAAAAAAAAAAAAAAAAAAAAAAAAAAAAAAAAAAAAAAAAAAAAAAAAAAAAAAAAAAAAAAAAAAAAAAAAAAAAAAAAAAAAAAAAAAAAAAAAAAAAAAAAAAAAAAAAAAAAAAAAAAAAAAAAAAAAAAAAAAAAAAAAAAAAAAAAAAAAAAAAAAAAAAAAAAAAAAAAAAAAAAAAAAAAAAAAAAAAAAAAAAAAAAAAAAAAAAAAAAAAAAAAAAAAAAAAAAAAAAAAAAAAAAAAAAAAAAAAAAAAAAAAAAAAAAAAAAAAAAAAAAAAAAAAAAAAAAAAAAAAAAAAAAAAAAAAAAAAAAAAAAAAAAAAAAAAAAAAAAAAAAAAAAAAAAAAAAAAAAAAAAAAAAAAAAAAAAAAAAAAAAAAAAAAAAAAAAAAAAAAAAAAAAAAAAAAAAAAAAAAAAAAAAAAAAAAAAAAAAAAAAAAAAAAAAAAAAAAAAAAAAAAAAAAAAAAAAAAAAAAAAAAAAAAAAAAAAAAAAAAAAAAAAAAAAAAAAAAAAAAAAAAAAAAAAAAAAAAAAAAAAAAAAAAAAAAAAAAAAAAAAAAAAAAAAAAAAAAAAAAAAAAAAAAAAAAAAAAAAAAAAAAAAAAAAAAAAAAAAAAAAAAAAAAAAAAAAAAAAAAAAAAAAAAAAAAAAAAAAAAAAAAAAAAAAAAAAAAAAAAAAAAAAAAAAAAAAAAAAAAAAAAAAAAAAAAAAAAAAAAAAAAAAAAAAAAAAAAAAAAAAAAAAAAAAAAAAAAAAAAAAAAAAAAAAAAAAAAAAAAAAAAAAAAAAAAAAAAAAAAAAAAAAAAAAAAAAAAAAAAAAAAAAAAAAAAAAAAAAAAAAAAAAAAAAAAAAAAAAAAAAAAAAAAAAAAAAAAAAAAAAAAAAAAAAAAAAAAAAAAAAAAAAAAAAAAAAAAAAAAAAAAAAAAAAAAAAAAAAAAAAAAAAAAAAAAAAAAAAAAAAAAAAAAAAAAAAAAAAAAAAAAAAAAAAAAAAAAAAAAAAAAAAAAAAAAAAAAAAAAAAAAAAAAAAAAAAAAAAAAAAAAAAAAAAAAAAAAAAAAAAAAAAAAAAAAAAAAAAAAAAAAAAAAAAAAAAAAAAAAAAAAAAAAAAAAAAAAAAAAAAAAAAAAAAAAAAAAAAAAAAAAAAAAAAAAAAAAAAAAAAAAAAAAAAAAAAAAAAAAAAAAAAAAAAAAAAAAAAAAAAAAAAAAAAAAAAAAAAAAAAAAAAAAAAAAAAAAAAAAAAAAAAAAAAAAAAAAAAAAAAAAAAAAAAAAAAAAAAAAAAAAAAAAAAAAAAAAAAAAAAAAAAAAAAAAAAAAAAAAAAAAAAAAAAAAAAAAAAAAAAAAAAAAAAAAAAAAAAAAAAAAAAAAAAAAAAAAAAAAAAAAAAAAAAAAAAAAAAAAAAAAAAAAAAAAAAAAAAAAAAAAAAAAAAAAAAAAAAAAAAAAAAAAAAAAAAAAAAAAAAAAAAAAAAAAAAAAAAAAAAAAAAAAAAAAAAAAAAAAAAAAAAAAAAAAAAAAAAAAAAAAAAAAAAAAAAAAAAAAAAAAAAAAAAAAAAAAAAAAAAAAAAAAAAAAAAAAAAAAAAAAAAAAAAAAAAAAAAAAAAAAAAAAAAAAAAAAAAAAAAAAAAAAAAAAAAAAAAAAAAAAAAAAAAAAAAAAAAAAAAAAAAAAAAAAAAAAAAAAAAAAAAAAAAAAAAAAAAAAAAAAAAAAAAAAAAAAAAAAAAAAAAAAAAAAAAAAAAAAAAAAAAAAAAAAAAAAAAAAAAAAAAAAAAAAAAAAAAAAAAAAAAAAAAAAAAAAAAAAAAAAAAAAAAAAAAAAAAAAAAAAAAAAAAAAAAAAAAAAAAAAAAAAAAAAAAAAAAAAAAAAAAAAAAAAAAAAAAAAAAAAAAAAAAAAAAAAAAAAAAAAAAAAAAAAAAAAAAAAAAAAAAAAAAAAAAAAAAAAAAAAAAAAAAAAAAAAAAAAAAAAAAAAAAAAAAAAAAAAAAAAAAAAAAAAAAAAAAAAAAAAAAAAAAAAAAAAAAAAAAAAAAAAAAAAAAAAAAAAAAAAAAAAAAAAAAAAAAAAAAAAAAAAAAAAAAAAAAAAAAAAAAAAAAAAAAAAAAAAAAAAAAAAAAAAAAAAAAAAAAAAAAAAAAAAAAAAAAAAAAAAAAAAAAAAAAAAAAAAAAAAAAAAAAAAAAAAAAAAAAAAAAAAAAAAAAAAAAAAAAAAAAAAAAAAAAAAAAAAAAAAAAAAAAAAAAAAAAAAAAAAAAAAAAAAAAAAAAAAAAAAAAAAAAAAAAAAAAAAAAAAAAAAAAAAAAAAAAAAAAAAAAAAAAAAAAAAAAAAAAAAAAAAAAAAAAAAAAAAAAAAAAAAAAAAAAAAAAAAAAAAAAAAAAAAAAAAAAAAAAAAAAAAAAAAAAAAAAAAAAAAAAAAAAAAAAAAAAAAAAAAAAAAAAAAAAAAAAAAAAAAAAAAAAAAAAAAAAAAAAAAAAAAAAAAAAAAAAAAAAAAAAAAAAAAAAAAAAAAAAAAAAAAAAAAAAAAAAAAAAAAAAAAAAAAAAAAAAAAAAAAAAAAAAAAAAAAAAAAAAAAAAAAAAAAAAAAAAAAAAAAAAAAAAAAAAAAAAAAAAAAAAAAAAAAAAAAAAAAAAAAAAAAAAAAAAAAAAAAAAAAAAAAAAAAAAAAAAAAAAAAAAAAAAAAAAAAAAAAAAAAAAAAAAAAAAAAAAAAAAAAAAAAAAAAAAAAAAAAAAAAAAAAAAAAAAAAAAAAAAAAAAAAAAAAAAAAAAAAAAAAAAAAAAAAAAAAAAAAAAAAAAAAAAAAAAAAAAAAAAAAAAAAAAAAAAAAAAAAAAAAAAAAAAAAAAAAAAAAAAAAAAAAAAAAAAAAAAAAAAAAAAAAAAAAAAAAAAAAAAAAAAAAAAAAAAAAAAAAAAAAAAAAAAAAAAAAAAAAAAAAAAAAAAAAAAAAAAAAAAAAAAAAAAAAAAAAAAAAAAAAAAAAAAAAAAAAAAAAAAAAAAAAAAAAAAAAAAAAAAAAAAAAAAAAAAAAAAAAAAAAAAAAAAAAAAAAAAAAAAAAAAAAAAAAAAAAAAAAAAAAAAAAAAAAAAAAAAAAAAAAAAAAAAAAAAAAAAAAAAAAAAAAAAAAAAAAAAAAAAAAAAAAAAAAAAAAAAAAAAAAAAAAAAAAAAAAAAAAAAAAAAAAAAAAAAAAAAAAAAAAAAAAAAAAAAAAAAAAAAAAAAAAAAAAAAAAAAAAAAAAAAAAAAAAAAAAAAAAAAAAAAAAAAAAAAAAAAAAAAAAAAAAAAAAAAAAAAAAAAAAAAAAAAAAAAAAAAAPZYQNpuaGCIpyyejV32brkTRiUrNuKPZ5LWl+wv4++JRZbDHPikRoxb/xh7ZlqjMu8HK6RyWtSsbItoMqO2yVCE5RU=</c2pa:manifest></metadata>
<text x="56" y="134" font-size="15.5" font-weight="700" fill="#8A93A8" letter-spacing="1.5">RESEARCH FRAMEWORK</text>
<g transform="translate(56,148)"><rect width="352" height="404" rx="16" fill="#F7F9FC" stroke="#D8DFEA" stroke-width="1.5"/>
<circle cx="40" cy="42" r="19" fill="#1C2B5A"/><text x="40" y="49" text-anchor="middle" font-size="18" font-weight="700" fill="#fff">1</text>
<text x="70" y="50" font-size="21" font-weight="700" fill="#1C2B5A">Data &amp; Domains</text>
<text x="26" y="84" font-size="17" fill="#6B7590">Complex real-world data and systems</text>
<line x1="26" y1="102" x2="326" y2="102" stroke="#D8DFEA"/>
<circle cx="32" cy="135" r="4.5" fill="#3A66C9"/><text x="48" y="142" font-size="19" fill="#2E3A55">Graphs &amp; networks</text><circle cx="32" cy="171" r="4.5" fill="#3A66C9"/><text x="48" y="178" font-size="19" fill="#2E3A55">User–item interactions</text><circle cx="32" cy="207" r="4.5" fill="#3A66C9"/><text x="48" y="214" font-size="19" fill="#2E3A55">Text, images &amp; video</text><circle cx="32" cy="243" r="4.5" fill="#3A66C9"/><text x="48" y="250" font-size="19" fill="#2E3A55">Temporal data</text><circle cx="32" cy="279" r="4.5" fill="#3A66C9"/><text x="48" y="286" font-size="19" fill="#2E3A55">Molecules, crystals &amp; cells</text><circle cx="32" cy="315" r="4.5" fill="#3A66C9"/><text x="48" y="322" font-size="19" fill="#2E3A55">Physical &amp; engineering systems</text>
</g>
<g transform="translate(435,148)"><rect width="352" height="404" rx="16" fill="#F7F9FC" stroke="#D8DFEA" stroke-width="1.5"/>
<circle cx="40" cy="42" r="19" fill="#1C2B5A"/><text x="40" y="49" text-anchor="middle" font-size="18" font-weight="700" fill="#fff">2</text>
<text x="70" y="50" font-size="21" font-weight="700" fill="#1C2B5A">Representation Learning</text>
<text x="26" y="84" font-size="17" fill="#6B7590">Unified, transferable representations</text>
<line x1="26" y1="102" x2="326" y2="102" stroke="#D8DFEA"/>
<circle cx="32" cy="135" r="4.5" fill="#3A66C9"/><text x="48" y="142" font-size="19" fill="#2E3A55">Graph &amp; relational learning</text><circle cx="32" cy="171" r="4.5" fill="#3A66C9"/><text x="48" y="178" font-size="19" fill="#2E3A55">Multimodal representation</text><circle cx="32" cy="207" r="4.5" fill="#3A66C9"/><text x="48" y="214" font-size="19" fill="#2E3A55">Foundation models</text><circle cx="32" cy="243" r="4.5" fill="#3A66C9"/><text x="48" y="250" font-size="19" fill="#2E3A55">Cross-modal alignment</text><circle cx="32" cy="279" r="4.5" fill="#3A66C9"/><text x="48" y="286" font-size="19" fill="#2E3A55">Robust &amp; generalizable learning</text><circle cx="32" cy="315" r="4.5" fill="#3A66C9"/><text x="48" y="322" font-size="19" fill="#2E3A55">Continual learning</text><circle cx="32" cy="351" r="4.5" fill="#3A66C9"/><text x="48" y="358" font-size="19" fill="#2E3A55">Generative &amp; inverse design</text>
</g>
<g transform="translate(814,148)"><rect width="352" height="404" rx="16" fill="#F7F9FC" stroke="#D8DFEA" stroke-width="1.5"/>
<circle cx="40" cy="42" r="19" fill="#1C2B5A"/><text x="40" y="49" text-anchor="middle" font-size="18" font-weight="700" fill="#fff">3</text>
<text x="70" y="50" font-size="21" font-weight="700" fill="#1C2B5A">Reasoning &amp; Adaptation</text>
<text x="26" y="84" font-size="17" fill="#6B7590">From representation to capabilities</text>
<line x1="26" y1="102" x2="326" y2="102" stroke="#D8DFEA"/>
<rect x="26" y="120" width="300" height="76" rx="10" fill="#EAF1FC" stroke="#C7D7F2"/><text x="42" y="152" font-size="18.5" font-weight="700" fill="#2557B8">Relational Reasoning</text><text x="42" y="178" font-size="16.5" fill="#4A5670">Graph FMs &#183; structured reasoning</text><rect x="26" y="210" width="300" height="76" rx="10" fill="#E9F6EF" stroke="#BFE3CF"/><text x="42" y="242" font-size="18.5" font-weight="700" fill="#1F8A57">Personalization &amp; Adaptation</text><text x="42" y="268" font-size="16.5" fill="#4A5670">RecSys &#183; continual user modeling</text><rect x="26" y="300" width="300" height="76" rx="10" fill="#F1ECFA" stroke="#D6C8F0"/><text x="42" y="332" font-size="18.5" font-weight="700" fill="#6A3FB5">Multimodal Reasoning</text><text x="42" y="358" font-size="16.5" fill="#4A5670">Vision &#183; language &#183; graph &#183; MLLMs</text>
</g>
<g transform="translate(1193,148)"><rect width="352" height="404" rx="16" fill="#F7F9FC" stroke="#D8DFEA" stroke-width="1.5"/>
<circle cx="40" cy="42" r="19" fill="#1C2B5A"/><text x="40" y="49" text-anchor="middle" font-size="18" font-weight="700" fill="#fff">4</text>
<text x="70" y="50" font-size="21" font-weight="700" fill="#1C2B5A">Agentic AI</text>
<text x="26" y="84" font-size="17" fill="#6B7590">From capabilities to action</text>
<line x1="26" y1="102" x2="326" y2="102" stroke="#D8DFEA"/>
<g transform="translate(176.0,226)"><circle r="60" fill="none" stroke="#C9D6EE" stroke-width="2"/><path d="M-5,-4.5 L4,0 L-5,4.5 Z" fill="#7F98CF" transform="translate(30.0,-52.0) rotate(30)"/><path d="M-5,-4.5 L4,0 L-5,4.5 Z" fill="#7F98CF" transform="translate(60.0,0.0) rotate(90)"/><path d="M-5,-4.5 L4,0 L-5,4.5 Z" fill="#7F98CF" transform="translate(30.0,52.0) rotate(150)"/><path d="M-5,-4.5 L4,0 L-5,4.5 Z" fill="#7F98CF" transform="translate(-30.0,52.0) rotate(210)"/><path d="M-5,-4.5 L4,0 L-5,4.5 Z" fill="#7F98CF" transform="translate(-60.0,0.0) rotate(270)"/><path d="M-5,-4.5 L4,0 L-5,4.5 Z" fill="#7F98CF" transform="translate(-30.0,-52.0) rotate(330)"/><circle cx="0.0" cy="-60.0" r="6" fill="#3A66C9"/><text x="0.0" y="-82.0" text-anchor="middle" font-size="16" font-weight="600" fill="#1C2B5A">Perceive</text><circle cx="52.0" cy="-30.0" r="6" fill="#3A66C9"/><text x="71.0" y="-36.0" text-anchor="start" font-size="16" font-weight="600" fill="#1C2B5A">Retrieve</text><circle cx="52.0" cy="30.0" r="6" fill="#3A66C9"/><text x="71.0" y="46.0" text-anchor="start" font-size="16" font-weight="600" fill="#1C2B5A">Reason</text><circle cx="0.0" cy="60.0" r="6" fill="#3A66C9"/><text x="0.0" y="88.0" text-anchor="middle" font-size="16" font-weight="600" fill="#1C2B5A">Plan</text><circle cx="-52.0" cy="30.0" r="6" fill="#3A66C9"/><text x="-71.0" y="46.0" text-anchor="end" font-size="16" font-weight="600" fill="#1C2B5A">Act</text><circle cx="-52.0" cy="-30.0" r="6" fill="#3A66C9"/><text x="-71.0" y="-36.0" text-anchor="end" font-size="16" font-weight="600" fill="#1C2B5A">Learn</text></g><g font-size="17.5" fill="#2E3A55" text-anchor="middle"><text x="176.0" y="350">Reasoning · Tool use · Memory</text><text x="176.0" y="377">Multi-agent · Self-improvement</text></g>
</g>



<text x="56" y="594" font-size="15.5" font-weight="700" fill="#8A93A8" letter-spacing="1.5">APPLICATIONS &amp; REAL-WORLD IMPACT</text>
<g transform="translate(56,608)"><rect width="1488" height="226" rx="16" fill="#F3F7FE" stroke="#B9CDF0" stroke-width="1.5"/>
<text x="26" y="46" font-size="26" font-weight="700" fill="#1C2B5A">AI for Science &amp; Engineering</text>
<text x="26" y="74" font-size="17.5" fill="#6B7590">Toward autonomous scientific discovery</text>
<rect x="26" y="94" width="468" height="76" rx="10" fill="#EAF1FC" stroke="#C7D7F2"/><text x="44" y="126" font-size="19.5" font-weight="700" fill="#2557B8">Materials &amp; Chemistry</text><text x="44" y="152" font-size="17" fill="#4A5670">molecules, crystals, spectra, synthesis</text><rect x="510" y="94" width="468" height="76" rx="10" fill="#E9F6EF" stroke="#BFE3CF"/><text x="528" y="126" font-size="19.5" font-weight="700" fill="#1F8A57">Biology</text><text x="528" y="152" font-size="17" fill="#4A5670">cells, molecular interactions, perturbations</text><rect x="994" y="94" width="468" height="76" rx="10" fill="#FCF1E6" stroke="#F3D3B0"/><text x="1012" y="126" font-size="19.5" font-weight="700" fill="#C9671A">Physics &amp; Engineering</text><text x="1012" y="152" font-size="17" fill="#4A5670">PDEs, fluid dynamics, neural operators, EDA</text><text x="26" y="204" font-size="17.5" font-weight="700" fill="#2557B8">Discovery loop</text><text x="192" y="204" font-size="17.5" fill="#2E3A55">Data → Hypothesis → Experiment → New knowledge, driven by scientific reasoning agents</text>
</g>
<g transform="translate(56,858)"><rect width="1488" height="336" rx="16" fill="#F7F9FC" stroke="#D8DFEA" stroke-width="1.5"/>
<text x="26" y="46" font-size="26" font-weight="700" fill="#1C2B5A">Diverse Domains</text>
<text x="26" y="74" font-size="17.5" fill="#6B7590">Core AI methodologies driving impact across industries</text>
<g font-size="19" fill="#2E3A55" text-anchor="middle"><g transform="translate(149,128)"><circle r="27" fill="#EEF3FC"/><g transform="scale(1.2)"><g fill="none" stroke="#3A66C9" stroke-width="1.9" stroke-linecap="round" stroke-linejoin="round"><path d="M0,-10 l3,6 6.5,1 -4.8,4.6 1.2,6.4 -5.9,-3.2 -5.9,3.2 1.2,-6.4 -4.8,-4.6 6.5,-1 z"/></g></g><text y="55">Recommendation</text></g><g transform="translate(446,128)"><circle r="27" fill="#EEF3FC"/><g transform="scale(1.2)"><g fill="none" stroke="#3A66C9" stroke-width="1.9" stroke-linecap="round" stroke-linejoin="round"><path d="M-9,-4 h18 l-1.5,14 h-15 z"/><path d="M-5,-4 c0,-8 10,-8 10,0"/></g></g><text y="55">E-commerce</text></g><g transform="translate(744,128)"><circle r="27" fill="#EEF3FC"/><g transform="scale(1.2)"><g fill="none" stroke="#3A66C9" stroke-width="1.9" stroke-linecap="round" stroke-linejoin="round"><path d="M-11,9 h22 M-11,9 v-18"/><path d="M-8,4 l5,-6 l4,3 l7,-9"/><path d="M8,-8 h3 v3"/></g></g><text y="55">Finance &amp; Risk</text></g><g transform="translate(1042,128)"><circle r="27" fill="#EEF3FC"/><g transform="scale(1.2)"><g fill="none" stroke="#3A66C9" stroke-width="1.9" stroke-linecap="round" stroke-linejoin="round"><path d="M0,-11 l9,3 v6 c0,6 -4,10 -9,12 c-5,-2 -9,-6 -9,-12 v-6 z"/><path d="M0,-4 v5"/><circle cx="0" cy="4.5" r="0.9" fill="#3A66C9"/></g></g><text y="55">Fraud &amp; Anomaly</text></g><g transform="translate(1339,128)"><circle r="27" fill="#EEF3FC"/><g transform="scale(1.2)"><g fill="none" stroke="#3A66C9" stroke-width="1.9" stroke-linecap="round" stroke-linejoin="round"><path d="M0,9 c-9,-6 -12,-11 -9,-15 c2.5,-3 6.5,-2.5 9,1 c2.5,-3.5 6.5,-4 9,-1 c3,4 0,9 -9,15 z"/><path d="M-5,0 h3 l2,-3 l2,6 l2,-3 h3"/></g></g><text y="55">Healthcare</text></g><g transform="translate(149,253)"><circle r="27" fill="#EEF3FC"/><g transform="scale(1.2)"><g fill="none" stroke="#3A66C9" stroke-width="1.9" stroke-linecap="round" stroke-linejoin="round"><circle cx="-6" cy="-3" r="3.5"/><circle cx="6" cy="-3" r="3.5"/><path d="M-12,9 c0,-5 12,-5 12,0 M0,9 c0,-5 12,-5 12,0"/></g></g><text y="55">Social Networks</text></g><g transform="translate(446,253)"><circle r="27" fill="#EEF3FC"/><g transform="scale(1.2)"><g fill="none" stroke="#3A66C9" stroke-width="1.9" stroke-linecap="round" stroke-linejoin="round"><circle cx="-8" cy="-6" r="3"/><circle cx="8" cy="-6" r="3"/><circle cx="0" cy="8" r="3"/><circle cx="0" cy="-2" r="2.2"/><path d="M-5.5,-5 l3.5,2 M5.5,-5 l-3.5,2 M0,0.3 v4.7"/></g></g><text y="55">Knowledge Graphs</text></g><g transform="translate(744,253)"><circle r="27" fill="#EEF3FC"/><g transform="scale(1.2)"><g fill="none" stroke="#3A66C9" stroke-width="1.9" stroke-linecap="round" stroke-linejoin="round"><path d="M-11,10 v-12 l6,4 v-4 l6,4 v-4 l6,4 v8 z"/><path d="M-7,10 v-3 M0,10 v-3 M7,10 v-3"/><path d="M-9,-2 v-8 h3 v6"/></g></g><text y="55">Manufacturing</text></g><g transform="translate(1042,253)"><circle r="27" fill="#EEF3FC"/><g transform="scale(1.2)"><g fill="none" stroke="#3A66C9" stroke-width="1.9" stroke-linecap="round" stroke-linejoin="round"><circle cx="4" cy="-8" r="2.5"/><path d="M-8,9 l6,-7 l4,-3 l5,4 l4,-1 M2,-1 l-2,8 M-9,-2 l6,-1 l3,3"/></g></g><text y="55">Sports Analytics</text></g><g transform="translate(1339,253)"><circle r="27" fill="#EEF3FC"/><g transform="scale(1.2)"><g fill="none" stroke="#3A66C9" stroke-width="1.9" stroke-linecap="round" stroke-linejoin="round"><path d="M-11,9 h22 M-11,9 v-18"/><path d="M-8,3 l3,-5 l3,3 l3,-7 l4,5 l4,-6"/><path d="M6,-2 l4,-5" stroke-dasharray="2 2"/></g></g><text y="55">Time Series</text></g></g>
</g>
</svg>